<svg xmlns="http://www.w3.org/2000/svg">
  <symbol id="rows" viewBox="0 0 24 24">
    <path
      d="m4.798 8.988-3.5-3.75c-.21-.226-.535-.301-.823-.186-.287.113-.475.39-.475.698v7.5c0 .308.188.585.475.697.089.036.182.053.275.053.204 0 .403-.083.548-.238l3.5-3.75c.269-.288.269-.736 0-1.024z"
    />
    <path
      d="m22 1h-15c-1.103 0-2 .897-2 2v2c0 1.103.897 2 2 2h15c1.103 0 2-.897 2-2v-2c0-1.103-.897-2-2-2zm-15 2h6.5v2h-6.5zm8.5 2v-2h6.5l.001 2z"
    />
    <path
      d="m22 12h-15c-1.103 0-2 .897-2 2v7c0 1.103.897 2 2 2h15c1.103 0 2-.897 2-2v-7c0-1.103-.897-2-2-2zm0 4.5h-6.5v-2.5h6.5zm-8.5-2.5v2.5h-6.5v-2.5zm-6.5 4.5h6.5v2.5h-6.5zm8.5 2.5v-2.5h6.501v2.5z"
    />
  </symbol>
  <symbol id="cols" viewBox="0 0 24 24">
    <path
      d="m13.947.475c-.112-.287-.389-.475-.697-.475h-7.5c-.308 0-.585.188-.697.475-.113.287-.04.613.186.823l3.75 3.5c.144.135.327.202.511.202s.367-.067.512-.202l3.75-3.5c.225-.21.299-.536.185-.823z"
    />
    <path
      d="m5 5h-2c-1.103 0-2 .897-2 2v15c0 1.103.897 2 2 2h2c1.103 0 2-.897 2-2v-15c0-1.103-.897-2-2-2zm0 1.999v6.501h-2v-6.5zm-2 15.001v-6.5h2v6.5z"
    />
    <path
      d="m21 5h-7c-1.103 0-2 .897-2 2v15c0 1.103.897 2 2 2h7c1.103 0 2-.897 2-2v-15c0-1.103-.897-2-2-2zm0 8.5h-2.5v-6.501h2.5zm-4.5-6.501v6.501h-2.5v-6.5zm-2.5 8.501h2.5v6.5h-2.5zm4.5 6.5v-6.5h2.5v6.5z"
    />
  </symbol>
  <symbol id="hastag" viewBox="-31 0 512 512">
    <path
      d="m30 316c-16.570312 0-30 13.429688-30 30 0 16.566406 13.429688 30 30 30h59l-14 106c0 16.566406 13.429688 30 30 30s30-13.433594 30-30l14-106h120l-14 106c0 16.566406 13.429688 30 30 30s30-13.433594 30-30l14-106h61c16.570312 0 30-13.433594 30-30 0-16.570312-13.429688-30-30-30h-53l16-120h67c16.570312 0 30-13.433594 30-30 0-16.570312-13.429688-30-30-30h-59l14-106c0-16.570312-13.429688-30-30-30s-30 13.429688-30 30l-14 106h-120l14-106c0-16.570312-13.429688-30-30-30s-30 13.429688-30 30l-14 106h-61c-16.570312 0-30 13.429688-30 30 0 16.566406 13.429688 30 30 30h53l-16 120zm143-120h120l-16 120h-120zm0 0"
    />
  </symbol>
</svg>
