<svg xmlns="http://www.w3.org/2000/svg">
  <symbol id="city" viewBox="0 0 512 512">
    <g>
      <path
        d="m497 481.993h-15v-407c0-7.148-5.054-13.301-12.056-14.707l-301-60c-4.395-.85-8.979.264-12.451 3.105-3.472 2.857-5.493 7.105-5.493 11.602v196h45c24.814 0 45 20.186 45 45v256h90v-62.518c-34.191-6.969-60-37.266-60-73.482 0-36.05 29.209-105 75-105s75 68.95 75 105c0 36.216-25.809 66.513-60 73.482v62.518h136c8.291 0 15-6.709 15-15s-6.709-15-15-15zm-211-301h-60c-8.291 0-15-6.709-15-15s6.709-15 15-15h60c8.291 0 15 6.709 15 15s-6.709 15-15 15zm0-60h-60c-8.291 0-15-6.709-15-15s6.709-15 15-15h60c8.291 0 15 6.709 15 15s-6.709 15-15 15zm120 120h-60c-8.291 0-15-6.709-15-15s6.709-15 15-15h60c8.291 0 15 6.709 15 15s-6.709 15-15 15zm0-60h-60c-8.291 0-15-6.709-15-15s6.709-15 15-15h60c8.291 0 15 6.709 15 15s-6.709 15-15 15z"
      />
      <path
        d="m391 375.993c0-29.619-24.141-75-45-75s-45 45.381-45 75c0 24.814 20.186 45 45 45s45-20.186 45-45z"
      />
      <path
        d="m196 240.993h-106v-105c0-8.291-6.709-15-15-15s-15 6.709-15 15v105h-15c-8.284 0-15 6.714-15 15v226h-15c-8.284 0-15 6.714-15 15 0 8.284 6.716 15 15 15h196v-256c0-8.286-6.716-15-15-15zm-45 210h-61c-8.291 0-15-6.709-15-15s6.709-15 15-15h61c8.291 0 15 6.709 15 15s-6.709 15-15 15zm0-60h-61c-8.291 0-15-6.709-15-15s6.709-15 15-15h61c8.291 0 15 6.709 15 15s-6.709 15-15 15zm0-60h-61c-8.291 0-15-6.709-15-15s6.709-15 15-15h61c8.291 0 15 6.709 15 15s-6.709 15-15 15z"
      />
    </g>
  </symbol>
  <symbol id="family" viewBox="0 0 512 512">
    <g>
      <g>
        <path
          d="M192.563,261.139c0-1.216,0.043-2.421,0.111-3.62c-6.289-3.656-13.519-5.764-21.099-5.764H54.987
          c-22.157,0-41.326,17.99-42.73,40.103L0,484.966h168.993V369.474c0-28.728,19.611-52.953,46.148-60.012
          C201.35,297.876,192.563,280.517,192.563,261.139z"
        />
      </g>
    </g>
    <g>
      <g>
        <path
          d="M113.28,67.994c-30.647,0-55.58,24.933-55.58,55.58v96.346h111.16v-96.346C168.86,92.927,143.927,67.994,113.28,67.994z"
        />
      </g>
    </g>
    <g>
      <g>
        <path
          d="M500.198,194.518c-8.161-8.578-19.176-13.301-31.016-13.301H332.315c-11.84,0-22.855,4.723-31.016,13.301
          c-4.196,4.409-7.328,9.524-9.311,15.058c16.189,11.436,26.791,30.279,26.791,51.562c0,19.379-8.787,36.737-22.578,48.323
          c26.536,7.06,46.148,31.284,46.148,60.013v115.492h156.746l12.85-258.81C512.532,214.331,508.361,203.094,500.198,194.518z"
        />
      </g>
    </g>
    <g>
      <g>
        <path
          d="M400.75,27.034c-35.108,0-63.669,28.561-63.669,63.669c0,35.106,28.562,63.668,63.669,63.668
          c35.106,0,63.668-28.562,63.668-63.668C464.418,55.596,435.856,27.034,400.75,27.034z"
        />
      </g>
    </g>
    <g>
      <g>
        <path
          d="M280.25,327.443h-49.159c-23.176,0-42.031,18.855-42.031,42.031v115.492h37.5h75.842h19.879V369.474
          C322.281,346.298,303.427,327.443,280.25,327.443z"
        />
      </g>
    </g>
    <g>
      <g>
        <path
          d="M255.671,218.1c-23.732,0-43.04,19.307-43.04,43.039c0,23.733,19.308,43.04,43.04,43.04s43.04-19.308,43.04-43.04
          S279.403,218.1,255.671,218.1z"
        />
      </g>
    </g>
    <g></g>
    <g></g>
    <g></g>
    <g></g>
    <g></g>
    <g></g>
    <g></g>
    <g></g>
    <g></g>
    <g></g>
    <g></g>
    <g></g>
    <g></g>
    <g></g>
    <g></g>
  </symbol>
  <symbol id="friends" viewBox="0 0 512 512">
    <path
      d="m256 60c8.289062 0 15-6.710938 15-15v-30c0-8.289062-6.710938-15-15-15s-15 6.710938-15 15v30c0 8.289062 6.710938 15 15 15zm0 0"
    />
    <path
      d="m326.605469 85.605469 30-30c5.859375-5.859375 5.859375-15.351563 0-21.210938s-15.351563-5.859375-21.210938 0l-30 30c-5.859375 5.859375-5.859375 15.351563 0 21.210938s15.351563 5.859375 21.210938 0zm0 0"
    />
    <path
      d="m185.394531 85.605469c5.859375 5.859375 15.351563 5.859375 21.210938 0s5.859375-15.351563 0-21.210938l-30-30c-5.859375-5.859375-15.351563-5.859375-21.210938 0s-5.859375 15.351563 0 21.210938zm0 0"
    />
    <path
      d="m135 212c0-33.089844-26.910156-60-60-60s-60 26.910156-60 60 26.910156 60 60 60 60-26.910156 60-60zm0 0"
    />
    <path
      d="m256 121c-24.8125 0-45 20.1875-45 45 0 57.890625-48.109375 106-106 106h-30c-41.351562 0-75 33.648438-75 75v150c0 8.289062 6.710938 15 15 15h120c8.277344 0 14.800781-6.710938 14.800781-14.984375l.085938-140.273437c87.597656-20.640626 151.113281-99.511719 151.113281-190.742188 0-24.8125-20.1875-45-45-45zm0 0"
    />
    <path
      d="m497 212c0-33.089844-26.910156-60-60-60s-60 26.910156-60 60 26.910156 60 60 60 60-26.910156 60-60zm0 0"
    />
    <path
      d="m437 272h-30c-34.492188 0-65.890625-17.941406-85.042969-43.707031-8.777343 30.96875-24.066406 59.074219-44.484375 83.140625 23.917969 21.113281 53.472656 37.871094 84.636719 45.292968l.089844 140.289063c0 8.273437 6.523437 14.984375 14.800781 14.984375h120c8.289062 0 15-6.710938 15-15v-150c0-41.351562-33.648438-75-75-75zm0 0"
    />
  </symbol>
  <symbol id="home" viewBox="0 0 512 512">
    <path
      d="m498.195312 222.695312c-.011718-.011718-.023437-.023437-.035156-.035156l-208.855468-208.847656c-8.902344-8.90625-20.738282-13.8125-33.328126-13.8125-12.589843 0-24.425781 4.902344-33.332031 13.808594l-208.746093 208.742187c-.070313.070313-.140626.144531-.210938.214844-18.28125 18.386719-18.25 48.21875.089844 66.558594 8.378906 8.382812 19.445312 13.238281 31.277344 13.746093.480468.046876.964843.070313 1.453124.070313h8.324219v153.699219c0 30.414062 24.746094 55.160156 55.167969 55.160156h81.710938c8.28125 0 15-6.714844 15-15v-120.5c0-13.878906 11.289062-25.167969 25.167968-25.167969h48.195313c13.878906 0 25.167969 11.289063 25.167969 25.167969v120.5c0 8.285156 6.714843 15 15 15h81.710937c30.421875 0 55.167969-24.746094 55.167969-55.160156v-153.699219h7.71875c12.585937 0 24.421875-4.902344 33.332031-13.808594 18.359375-18.371093 18.367187-48.253906.023437-66.636719zm0 0"
    />
  </symbol>
  <symbol id="my-likes" viewBox="0 0 512 512">
    <g>
      <g>
        <path
          d="M105,165.853H15c-8.291,0-15,6.709-15,15v270c0,8.291,6.709,15,15,15h90c24.814,0,45-20.186,45-45v-210
          C150,186.038,129.814,165.853,105,165.853z M75,405.853c-8.284,0-15-6.716-15-15c0-8.286,6.716-15,15-15s15,6.714,15,15
          C90,399.136,83.284,405.853,75,405.853z"
        />
      </g>
    </g>
    <g>
      <g>
        <path
          d="M512,240.853c0-24.814-20.186-45-45-45H353.621c26.572-47.241,33.018-89.868,17.402-119.414
          c-10.02-18.97-28.652-30.293-49.746-30.293c-0.117,0-0.234,0-0.381,0c-32.344,0-37.793,25.093-42.188,45.278
          c-6.006,27.524-14.15,64.995-71.309,104.429H180v240.575l9.932,2.78c46.641,13.096,96.863,26.646,146.873,26.646H407
          c24.814,0,45-20.186,45-45c0-5.845-1.113-11.44-3.164-16.582c19.102-5.2,33.164-22.705,33.164-43.418
          c0-5.845-1.113-11.44-3.164-16.582c19.102-5.2,33.164-22.705,33.164-43.418c0-11.514-4.336-22.031-11.484-30
          C507.664,262.884,512,252.366,512,240.853z"
        />
      </g>
    </g>
    <g></g>
    <g></g>
    <g></g>
    <g></g>
    <g></g>
    <g></g>
    <g></g>
    <g></g>
    <g></g>
    <g></g>
    <g></g>
    <g></g>
    <g></g>
    <g></g>
    <g></g>
  </symbol>
  <symbol id="calendar" viewBox="0 0 24 24">
    <path d="M0 0h24v24H0z" fill="none" />
    <path
      d="M17 12h-5v5h5v-5zM16 1v2H8V1H6v2H5c-1.11 0-1.99.9-1.99 2L3 19c0 1.1.89 2 2 2h14c1.1 0 2-.9 2-2V5c0-1.1-.9-2-2-2h-1V1h-2zm3 18H5V8h14v11z"
    />
  </symbol>
  <symbol id="user" viewBox="0 0 24 24">
    <path d="M0 0h24v24H0z" fill="none" />
    <path
      d="M12 2C6.48 2 2 6.48 2 12s4.48 10 10 10 10-4.48 10-10S17.52 2 12 2zm0 3c1.66 0 3 1.34 3 3s-1.34 3-3 3-3-1.34-3-3 1.34-3 3-3zm0 14.2c-2.5 0-4.71-1.28-6-3.22.03-1.99 4-3.08 6-3.08 1.99 0 5.97 1.09 6 3.08-1.29 1.94-3.5 3.22-6 3.22z"
    />
  </symbol>
  <symbol id="cellphone" viewBox="0 0 24 24">
    <path d="M0 0h24v24H0z" fill="none" />
    <path
      d="M16 1H8C6.34 1 5 2.34 5 4v16c0 1.66 1.34 3 3 3h8c1.66 0 3-1.34 3-3V4c0-1.66-1.34-3-3-3zm-2 20h-4v-1h4v1zm3.25-3H6.75V4h10.5v14z"
    />
  </symbol>
  <symbol id="location" viewBox="0 0 24 24">
    <path d="M0 0h24v24H0z" fill="none" />
    <path
      d="M12 2C8.13 2 5 5.13 5 9c0 5.25 7 13 7 13s7-7.75 7-13c0-3.87-3.13-7-7-7zm0 9.5c-1.38 0-2.5-1.12-2.5-2.5s1.12-2.5 2.5-2.5 2.5 1.12 2.5 2.5-1.12 2.5-2.5 2.5z"
    />
  </symbol>
  <symbol id="email" viewBox="0 0 24 24">
    <path d="M0 0h24v24H0z" fill="none" />
    <path
      d="M20 4H4c-1.1 0-1.99.9-1.99 2L2 18c0 1.1.9 2 2 2h16c1.1 0 2-.9 2-2V6c0-1.1-.9-2-2-2zm0 4l-8 5-8-5V6l8 5 8-5v2z"
    />
  </symbol>
  <symbol id="github" viewBox="0 0 24 24">
    <path
      d="m12 .5c-6.63 0-12 5.28-12 11.792 0 5.211 3.438 9.63 8.205 11.188.6.111.82-.254.82-.567 0-.28-.01-1.022-.015-2.005-3.338.711-4.042-1.582-4.042-1.582-.546-1.361-1.335-1.725-1.335-1.725-1.087-.731.084-.716.084-.716 1.205.082 1.838 1.215 1.838 1.215 1.07 1.803 2.809 1.282 3.495.981.108-.763.417-1.282.76-1.577-2.665-.295-5.466-1.309-5.466-5.827 0-1.287.465-2.339 1.235-3.164-.135-.298-.54-1.497.105-3.121 0 0 1.005-.316 3.3 1.209.96-.262 1.98-.392 3-.398 1.02.006 2.04.136 3 .398 2.28-1.525 3.285-1.209 3.285-1.209.645 1.624.24 2.823.12 3.121.765.825 1.23 1.877 1.23 3.164 0 4.53-2.805 5.527-5.475 5.817.42.354.81 1.077.81 2.182 0 1.578-.015 2.846-.015 3.229 0 .309.21.678.825.56 4.801-1.548 8.236-5.97 8.236-11.173 0-6.512-5.373-11.792-12-11.792z"
    />
  </symbol>
  <symbol id="js" viewBox="0 0 256 256">
    <g>
      <path d="M0,0 L256,0 L256,256 L0,256 L0,0 Z" fill="#F7DF1E"></path>
      <path
        d="M67.311746,213.932292 L86.902654,202.076241 C90.6821079,208.777346 94.1202286,214.447137 102.367086,214.447137 C110.272203,214.447137 115.256076,211.354819 115.256076,199.326883 L115.256076,117.528787 L139.313575,117.528787 L139.313575,199.666997 C139.313575,224.58433 124.707759,235.925943 103.3984,235.925943 C84.1532952,235.925943 72.9819429,225.958603 67.3113397,213.93026"
        fill="#000000"
      ></path>
      <path
        d="M152.380952,211.354413 L171.969422,200.0128 C177.125994,208.433981 183.827911,214.619835 195.684368,214.619835 C205.652521,214.619835 212.009041,209.635962 212.009041,202.762159 C212.009041,194.513676 205.479416,191.592025 194.481168,186.78207 L188.468419,184.202565 C171.111213,176.81473 159.597308,167.53534 159.597308,147.944838 C159.597308,129.901308 173.344508,116.153295 194.825752,116.153295 C210.119924,116.153295 221.117765,121.48094 229.021663,135.400432 L210.29059,147.428775 C206.166146,140.040127 201.699556,137.119289 194.826159,137.119289 C187.78047,137.119289 183.312254,141.587098 183.312254,147.428775 C183.312254,154.646349 187.78047,157.568406 198.089956,162.036622 L204.103924,164.614095 C224.553448,173.378641 236.067352,182.313448 236.067352,202.418387 C236.067352,224.071924 219.055137,235.927975 196.200432,235.927975 C173.860978,235.927975 159.425829,225.274311 152.381359,211.354413"
        fill="#000000"
      ></path>
    </g>
  </symbol>
  <symbol id="vue" viewBox="0 0 256 221">
    <g>
      <path
        d="M204.8,0 L256,0 L128,220.8 L0,0 L50.56,0 L97.92,0 L128,51.2 L157.44,0 L204.8,0 Z"
        fill="#41B883"
      ></path>
      <path
        d="M0,0 L128,220.8 L256,0 L204.8,0 L128,132.48 L50.56,0 L0,0 Z"
        fill="#41B883"
      ></path>
      <path
        d="M50.56,0 L128,133.12 L204.8,0 L157.44,0 L128,51.2 L97.92,0 L50.56,0 Z"
        fill="#35495E"
      ></path>
    </g>
  </symbol>
  <symbol
    xmlns:dc="http://purl.org/dc/elements/1.1/"
    xmlns:cc="http://creativecommons.org/ns#"
    xmlns:rdf="http://www.w3.org/1999/02/22-rdf-syntax-ns#"
    xmlns:svg="http://www.w3.org/2000/svg"
    xmlns="http://www.w3.org/2000/svg"
    id="css3"
    version="1.1"
    viewBox="0 0 300 300"
  >
    <metadata id="metadata22">
      <rdf:RDF>
        <cc:Work rdf:about="">
          <dc:format>image/svg+xml</dc:format>
          <dc:type rdf:resource="http://purl.org/dc/dcmitype/StillImage" />
        </cc:Work>
      </rdf:RDF>
    </metadata>
    <defs id="defs20" />
    <g id="g14">
      <path
        id="path2"
        fill="#1572b6"
        d="M50 263.4L27.7 12.7h245.6l-22.4 250.7-100.6 27.9zm0 0"
      />
      <path
        id="path4"
        fill="#33a9dc"
        d="M150.5 270l81.2-22.6L251 33.2H150.5zm0 0"
      />
      <path
        id="path6"
        fill="#fff"
        d="M150.5 124h40.7l2.8-31.5h-43.5V61.8h77l-.7 8.2-7.5 84.8h-68.8zm0 0"
      />
      <path
        id="path8"
        fill="#ebebeb"
        d="M150.7 203.9h-.2l-34.2-9.2-2.2-24.5H83.2l4.3 48.2 63 17.5h.2zm0 0"
      />
      <path
        id="path10"
        fill="#fff"
        d="M188.5 153.5l-3.7 41.2-34.3 9.2v32l63-17.5.5-5.2 5.4-59.7zm0 0"
      />
      <path
        id="path12"
        fill="#ebebeb"
        d="M150.6 61.8v30.7H76.3l-.6-6.9L74.3 70l-.8-8.2zm-.1 62.2v30.8h-33.8l-.7-7-1.4-15.5-.7-8.3zm0 0"
      />
    </g>
  </symbol>
  <symbol id="html5" viewBox="0 0 2000 2000">
    <g id="Logo_artwork"></g>
    <g id="Guides_to_delete">
      <g>
        <polygon
          fill="#E34E26"
          points="352.732,1718.4 208.627,101.984 1791.373,101.984 1647.093,1718.528 999.615,1898.016 		"
        />
        <polygon
          fill="#EF662A"
          points="1000,234.108 1000,1760.716 1523.565,1615.585 1646.918,234.108 		"
        />
        <polygon
          fill="#FFFFFF"
          points="503.468,432.378 556.906,1031.897 1244.048,1031.897 1220.988,1289.041 999.744,1348.857 
          778.919,1289.128 764.155,1124.017 565.155,1124.017 593.611,1442.302 999.697,1555.086 1406.296,1442.302 1460.806,833.669 
          738.229,833.669 720.086,630.648 1478.168,630.648 1478.773,630.648 1496.532,432.378 		"
        />
        <g>
          <polygon
            fill="#EBEBEB"
            points="1000,432.378 503.468,432.378 556.906,1031.897 1000,1031.897 1000,833.669 738.229,833.669 
            720.086,630.648 1000,630.648 			"
          />
          <polygon
            fill="#EBEBEB"
            points="1000,1348.771 999.744,1348.857 778.919,1289.128 764.155,1124.017 565.155,1124.017 
            593.611,1442.302 999.697,1555.086 1000,1555.001 			"
          />
        </g>
      </g>
    </g>
  </symbol>
  <symbol id="php" viewBox="0 0 256 135">
    <defs>
      <radialGradient
        id="radialGradient-1"
        cx="0.8366"
        cy="-125.811"
        r="363.0565"
        gradientTransform="matrix(0.463 0 0 0.463 76.4644 81.9182)"
        gradientUnits="userSpaceOnUse"
      >
        <stop offset="0" style="stop-color: #ffffff" />
        <stop offset="0.5" style="stop-color: #4c6b97" />
        <stop offset="1" style="stop-color: #231f20" />
      </radialGradient>
    </defs>
    <g>
      <ellipse
        fill="url(#radialGradient-1)"
        cx="128"
        cy="67.3"
        rx="128"
        ry="67.3"
      />
      <ellipse fill="#6181B6" cx="128" cy="67.3" rx="123" ry="62.3" />
      <g>
        <path
          fill="#FFFFFF"
          d="M152.9,87.5c0,0,6.1-31.4,6.1-31.4c1.4-7.1,0.2-12.4-3.4-15.7c-3.5-3.2-9.5-4.8-18.3-4.8h-10.6l3-15.6
          c0.1-0.6,0-1.2-0.4-1.7c-0.4-0.5-0.9-0.7-1.5-0.7h-14.6c-1,0-1.8,0.7-2,1.6l-6.5,33.3c-0.6-3.8-2-7-4.4-9.6
          c-4.3-4.9-11-7.4-20.1-7.4H52.1c-1,0-1.8,0.7-2,1.6L37,104.7c-0.1,0.6,0,1.2,0.4,1.7c0.4,0.5,0.9,0.7,1.5,0.7h14.7
          c1,0,1.8-0.7,2-1.6l3.2-16.3h10.9c5.7,0,10.6-0.6,14.3-1.8c3.9-1.3,7.4-3.4,10.5-6.3c2.5-2.3,4.6-4.9,6.2-7.7l-2.6,13.5
          c-0.1,0.6,0,1.2,0.4,1.7s0.9,0.7,1.5,0.7h14.6c1,0,1.8-0.7,2-1.6l7.2-37h10c4.3,0,5.5,0.8,5.9,1.2c0.3,0.3,0.9,1.5,0.2,5.2
          l-5.8,29.9c-0.1,0.6,0,1.2,0.4,1.7c0.4,0.5,0.9,0.7,1.5,0.7H151C151.9,89.1,152.7,88.4,152.9,87.5z M85.3,61.5
          c-0.9,4.7-2.6,8.1-5.1,10c-2.5,1.9-6.6,2.9-12,2.9h-6.5l4.7-24.2h8.4c6.2,0,8.7,1.3,9.7,2.4C85.8,54.2,86.1,57.3,85.3,61.5z"
        />
        <path
          fill="#FFFFFF"
          d="M215.3,42.9c-4.3-4.9-11-7.4-20.1-7.4h-28.3c-1,0-1.8,0.7-2,1.6l-13.1,67.5c-0.1,0.6,0,1.2,0.4,1.7
          c0.4,0.5,0.9,0.7,1.5,0.7h14.7c1,0,1.8-0.7,2-1.6l3.2-16.3h10.9c5.7,0,10.6-0.6,14.3-1.8c3.9-1.3,7.4-3.4,10.5-6.3
          c2.6-2.4,4.8-5.1,6.4-8c1.6-2.9,2.8-6.1,3.5-9.6C220.9,54.7,219.6,47.9,215.3,42.9z M200,61.5c-0.9,4.7-2.6,8.1-5.1,10
          c-2.5,1.9-6.6,2.9-12,2.9h-6.5l4.7-24.2h8.4c6.2,0,8.7,1.3,9.7,2.4C200.6,54.2,200.9,57.3,200,61.5z"
        />
      </g>
      <g>
        <path
          fill="#000004"
          d="M74.8,48.2c5.6,0,9.3,1,11.2,3.1c1.9,2.1,2.3,5.6,1.3,10.6c-1,5.2-3,9-5.9,11.2c-2.9,2.2-7.3,3.3-13.2,3.3
          h-8.9l5.5-28.2H74.8z M39,105h14.7l3.5-17.9h12.6c5.6,0,10.1-0.6,13.7-1.8c3.6-1.2,6.8-3.1,9.8-5.9c2.5-2.3,4.5-4.8,6-7.5
          c1.5-2.7,2.6-5.7,3.2-9c1.6-8,0.4-14.2-3.5-18.7c-3.9-4.5-10.1-6.7-18.6-6.7H52.1L39,105z"
        />
        <path
          fill="#000004"
          d="M113.3,19.6h14.6l-3.5,17.9h13c8.2,0,13.8,1.4,16.9,4.3c3.1,2.9,4,7.5,2.8,13.9L151,87.1h-14.8l5.8-29.9
          c0.7-3.4,0.4-5.7-0.7-6.9c-1.1-1.2-3.6-1.9-7.3-1.9h-11.7l-7.5,38.7h-14.6L113.3,19.6z"
        />
        <path
          fill="#000004"
          d="M189.5,48.2c5.6,0,9.3,1,11.2,3.1c1.9,2.1,2.3,5.6,1.3,10.6c-1,5.2-3,9-5.9,11.2c-2.9,2.2-7.3,3.3-13.2,3.3
          h-8.9l5.5-28.2H189.5z M153.7,105h14.7l3.5-17.9h12.6c5.6,0,10.1-0.6,13.7-1.8c3.6-1.2,6.8-3.1,9.8-5.9c2.5-2.3,4.5-4.8,6-7.5
          c1.5-2.7,2.6-5.7,3.2-9c1.6-8,0.4-14.2-3.5-18.7c-3.9-4.5-10.1-6.7-18.6-6.7h-28.3L153.7,105z"
        />
      </g>
    </g>
  </symbol>
  <symbol id="laravel" viewBox="0 0 256 264">
    <g>
      <path
        d="M255.855641,59.619717 C255.950565,59.9710596 256,60.3333149 256,60.6972536 L256,117.265345 C256,118.743206 255.209409,120.108149 253.927418,120.843385 L206.448786,148.178786 L206.448786,202.359798 C206.448786,203.834322 205.665123,205.195421 204.386515,205.937838 L105.27893,262.990563 C105.05208,263.119455 104.804608,263.201946 104.557135,263.289593 C104.464333,263.320527 104.376687,263.377239 104.278729,263.403017 C103.585929,263.58546 102.857701,263.58546 102.164901,263.403017 C102.051476,263.372083 101.948363,263.310215 101.840093,263.26897 C101.613244,263.186479 101.376082,263.1143 101.159544,262.990563 L2.07258227,205.937838 C0.7913718,205.201819 0,203.837372 0,202.359798 L0,32.6555248 C0,32.2843161 0.0515567729,31.9234187 0.144358964,31.5728326 C0.175293028,31.454252 0.24747251,31.3459828 0.288717928,31.2274022 C0.366053087,31.0108638 0.438232569,30.7891697 0.55165747,30.5880982 C0.628992629,30.4540506 0.742417529,30.3457814 0.83521972,30.2220451 C0.953800298,30.0570635 1.06206952,29.8869261 1.20127281,29.7425672 C1.31985339,29.6239866 1.4745237,29.5363401 1.60857131,29.4332265 C1.75808595,29.3094903 1.89213356,29.1754427 2.06227091,29.0774848 L2.06742659,29.0774848 L51.6134853,0.551122364 C52.8901903,-0.183535768 54.4613221,-0.183535768 55.7380271,0.551122364 L105.284086,29.0774848 L105.294397,29.0774848 C105.459379,29.1805983 105.598582,29.3094903 105.748097,29.4280708 C105.882144,29.5311844 106.031659,29.6239866 106.15024,29.7374115 C106.294599,29.8869261 106.397712,30.0570635 106.521448,30.2220451 C106.609095,30.3457814 106.727676,30.4540506 106.799855,30.5880982 C106.918436,30.7943253 106.985459,31.0108638 107.06795,31.2274022 C107.109196,31.3459828 107.181375,31.454252 107.212309,31.5779883 C107.307234,31.9293308 107.355765,32.2915861 107.356668,32.6555248 L107.356668,138.651094 L148.643332,114.878266 L148.643332,60.6920979 C148.643332,60.3312005 148.694889,59.9651474 148.787691,59.619717 C148.823781,59.4959808 148.890804,59.3877116 148.93205,59.269131 C149.014541,59.0525925 149.08672,58.8308984 149.200145,58.629827 C149.27748,58.4957794 149.390905,58.3875102 149.478552,58.2637739 C149.602288,58.0987922 149.705401,57.9286549 149.84976,57.7842959 C149.968341,57.6657153 150.117856,57.5780688 150.251903,57.4749553 C150.406573,57.351219 150.540621,57.2171714 150.705603,57.1192136 L150.710758,57.1192136 L200.261973,28.5928511 C201.538395,27.8571345 203.110093,27.8571345 204.386515,28.5928511 L253.932573,57.1192136 C254.107866,57.2223271 254.241914,57.351219 254.396584,57.4697996 C254.525476,57.5729132 254.674991,57.6657153 254.793572,57.7791402 C254.93793,57.9286549 255.041044,58.0987922 255.16478,58.2637739 C255.257582,58.3875102 255.371007,58.4957794 255.443187,58.629827 C255.561767,58.8308984 255.628791,59.0525925 255.711282,59.269131 C255.757683,59.3877116 255.824707,59.4959808 255.855641,59.619717 Z M247.740605,114.878266 L247.740605,67.8378666 L230.402062,77.8192579 L206.448786,91.6106946 L206.448786,138.651094 L247.745761,114.878266 L247.740605,114.878266 Z M198.194546,199.97272 L198.194546,152.901386 L174.633101,166.357704 L107.351512,204.757188 L107.351512,252.27191 L198.194546,199.97272 Z M8.25939501,39.7961379 L8.25939501,199.97272 L99.0921175,252.266755 L99.0921175,204.762344 L51.6392637,177.906421 L51.6237967,177.89611 L51.603174,177.885798 C51.443348,177.792996 51.3093004,177.658949 51.1597857,177.545524 C51.0308938,177.44241 50.8813791,177.359919 50.7679542,177.246494 L50.7576429,177.231027 C50.6235953,177.102135 50.5307931,176.942309 50.4173682,176.79795 C50.3142546,176.658747 50.1905184,176.540167 50.1080276,176.395808 L50.1028719,176.380341 C50.0100697,176.22567 49.9533572,176.040066 49.8863334,175.864773 C49.8193096,175.710103 49.7316631,175.565744 49.6904177,175.400762 L49.6904177,175.395606 C49.6388609,175.19969 49.6285496,174.993463 49.6079269,174.792392 C49.5873041,174.637722 49.5460587,174.483051 49.5460587,174.328381 L49.5460587,174.31807 L49.5460587,63.5689658 L25.5979377,49.7723734 L8.25939501,39.8012935 L8.25939501,39.7961379 Z M53.6809119,8.89300821 L12.3994039,32.6555248 L53.6706006,56.4180414 L94.9469529,32.6503692 L53.6706006,8.89300821 L53.6809119,8.89300821 Z M75.1491521,157.19091 L99.0972731,143.404629 L99.0972731,39.7961379 L81.7587304,49.7775291 L57.8054537,63.5689658 L57.8054537,167.177457 L75.1491521,157.19091 Z M202.324244,36.934737 L161.047891,60.6972536 L202.324244,84.4597702 L243.59544,60.6920979 L202.324244,36.934737 Z M198.194546,91.6106946 L174.24127,77.8192579 L156.902727,67.8378666 L156.902727,114.878266 L180.850848,128.664547 L198.194546,138.651094 L198.194546,91.6106946 Z M103.216659,197.616575 L163.759778,163.052915 L194.023603,145.781396 L152.778185,122.034346 L105.289242,149.374903 L62.0073307,174.292291 L103.216659,197.616575 Z"
        fill="#FF2D20"
      ></path>
    </g>
  </symbol>
  <symbol id="adobexd" viewBox="0 0 2500 2437.5">
    <path
      class="st0"
      fill="#ff26be"
      d="M2057.3,2437.5H442.7C197.9,2437.5,0,2239.6,0,1994.8V442.7C0,197.9,197.9,0,442.7,0h1614.6
      C2302.1,0,2500,197.9,2500,442.7v1552.1C2500,2239.6,2302.1,2437.5,2057.3,2437.5z"
    />
    <path
      class="st1"
      fill="#2e001f"
      d="M2017.7,2333.3H482.3c-208.3,0-378.1-169.8-378.1-378.1V482.3c0-208.3,169.8-378.1,378.1-378.1h1534.4
      c209.4,0,378.1,169.8,378.1,378.1v1471.9C2395.8,2163.5,2226,2333.3,2017.7,2333.3L2017.7,2333.3z"
    />
    <path
      class="st2"
      fill="#ffd9f2"
      d="M988.5,1140.6l291.7,560.4c5.2,8.3,2.1,16.7-6.3,16.7h-181.3c-11.5,0-16.7-3.1-21.9-13.5
      c-66.7-137.5-134.4-275-204.2-422.9h-2.1c-62.5,139.6-131.3,286.5-197.9,424c-5.2,8.3-10.4,11.5-18.8,11.5H476
      c-10.4,0-11.5-8.3-6.2-14.6l285.4-543.8l-276-550c-6.3-8.3,0-14.6,6.2-14.6h179.2c10.4,0,14.6,2.1,18.7,11.5
      c65.6,137.5,132.3,279.2,194.8,417.7h2.1c60.4-137.5,127.1-280.2,191.7-416.7c5.2-8.3,8.3-13.5,18.8-13.5h167.7
      c8.3,0,11.5,6.3,6.3,14.6L988.5,1140.6z M1331.3,1310.4c0-242.7,161.5-432.3,417.7-432.3c21.9,0,33.3,0,54.2,2.1v-276
      c0-6.3,5.2-10.4,10.4-10.4h164.6c8.3,0,10.4,3.1,10.4,8.3v956.3c0,28.1,0,63.5,5.2,102.1c0,6.3-2.1,8.3-8.3,11.5
      c-87.5,41.7-179.2,60.4-266.7,60.4C1492.7,1733.3,1331.2,1593.8,1331.3,1310.4L1331.3,1310.4z M1803.1,1043.8
      c-14.6-6.3-35.4-10.4-60.4-10.4c-131.3,0-222.9,101-222.9,268.8c0,191.7,93.8,268.8,211.5,268.8c25,0,52.1-3.1,71.9-11.5V1043.8z"
    />
  </symbol>
</svg>
