<svg xmlns="http://www.w3.org/2000/svg">
  <symbol id="number" viewBox="0 0 24 24">
    <path
      d="M20 10V8h-4V4h-2v4h-4V4H8v4H4v2h4v4H4v2h4v4h2v-4h4v4h2v-4h4v-2h-4v-4h4zm-6 4h-4v-4h4v4z"
    />
  </symbol>
  <symbol id="person" viewBox="0 0 24 24">
    <path d="M0 0h24v24H0z" fill="none" />
    <path
      d="M12 12c2.21 0 4-1.79 4-4s-1.79-4-4-4-4 1.79-4 4 1.79 4 4 4zm0 2c-2.67 0-8 1.34-8 4v2h16v-2c0-2.66-5.33-4-8-4z"
    />
  </symbol>
  <symbol id="expand" viewBox="0 0 24 24">
    <path d="M0 0h24v24H0z" fill="none" />
    <path d="M16.59 8.59L12 13.17 7.41 8.59 6 10l6 6 6-6z" />
  </symbol>
  <symbol id="college-id" viewBox="0 0 24 24">
    <g><rect fill="none" height="24" width="24" /></g>
    <g>
      <path
        d="M20,7h-5V4c0-1.1-0.9-2-2-2h-2C9.9,2,9,2.9,9,4v3H4C2.9,7,2,7.9,2,9v11c0,1.1,0.9,2,2,2h16c1.1,0,2-0.9,2-2V9 C22,7.9,21.1,7,20,7z M9,12c0.83,0,1.5,0.67,1.5,1.5S9.83,15,9,15s-1.5-0.67-1.5-1.5S8.17,12,9,12z M12,18H6v-0.75c0-1,2-1.5,3-1.5 s3,0.5,3,1.5V18z M13,9h-2V4h2V9z M18,16.5h-4V15h4V16.5z M18,13.5h-4V12h4V13.5z"
      />
    </g>
  </symbol>
</svg>
